PathFileType	4	(X/Y/Z)	/Users/itak/Documents/Research/Walk-IL/dataset/trc/00194_00008.trc
DataRate	CameraRate	NumFrames	NumMarkers	Units	OrigDataRate	OrigDataStartFrame	OrigNumFrames
100.000000	100.000000	4	53	mm	100.000000	303	810
Frame#	Time	RPSI			LPSI			L3			STRN			T10			C7			CLAV			RBAK			LBAK			LSHO			LUPA			LAEL			LAOL			LWTS			LWPS			LFRA			LIFD			LHPS			LHTS			RSHO			RUPA			RAEL			RAOL			RWTS			RWPS			RFRA			RIFD			RHTS			RHPS			RBHD			LFHD			RFHD			LBHD			LHIP			RHIP			RASI			LASI			LKNE			LTHI			LANK			LTIP			LTOE			LMT1			LMT5			LHEE			RKNE			RTHI			RANK			RTIP			RTOE			RMT1			RMT5			RHEE			
		X1	Y1	Z1	X2	Y2	Z2	X3	Y3	Z3	X4	Y4	Z4	X5	Y5	Z5	X6	Y6	Z6	X7	Y7	Z7	X8	Y8	Z8	X9	Y9	Z9	X10	Y10	Z10	X11	Y11	Z11	X12	Y12	Z12	X13	Y13	Z13	X14	Y14	Z14	X15	Y15	Z15	X16	Y16	Z16	X17	Y17	Z17	X18	Y18	Z18	X19	Y19	Z19	X20	Y20	Z20	X21	Y21	Z21	X22	Y22	Z22	X23	Y23	Z23	X24	Y24	Z24	X25	Y25	Z25	X26	Y26	Z26	X27	Y27	Z27	X28	Y28	Z28	X29	Y29	Z29	X30	Y30	Z30	X31	Y31	Z31	X32	Y32	Z32	X33	Y33	Z33	X34	Y34	Z34	X35	Y35	Z35	X36	Y36	Z36	X37	Y37	Z37	X38	Y38	Z38	X39	Y39	Z39	X40	Y40	Z40	X41	Y41	Z41	X42	Y42	Z42	X43	Y43	Z43	X44	Y44	Z44	X45	Y45	Z45	X46	Y46	Z46	X47	Y47	Z47	X48	Y48	Z48	X49	Y49	Z49	X50	Y50	Z50	X51	Y51	Z51	X52	Y52	Z52	X53	Y53	Z53	

304	3.03	-689.1946411132812	1028.98486328125	81.65465545654297	-812.462158203125	1040.436279296875	92.34906005859375	-747.533203125	1071.50390625	87.83487701416016	-748.5761108398438	1286.821655273438	-167.8005676269531	-747.673583984375	1227.431884765625	128.5428009033203	-743.2079467773438	1498.788818359375	68.53984832763672	-747.4034423828125	1399.831176757812	-136.5150146484375	-647.66845703125	1313.097045898438	131.0312957763672	-842.5538940429688	1483.086791992188	77.73500061035156	-920.9351196289062	1478.808471679688	1.902094721794128	-1002.176940917969	1351.690185546875	35.52956390380859	-1041.610107421875	1140.662719726562	15.5866231918335	-962.7230224609375	1114.260375976562	44.51090240478516	-1065.287231445312	922.2459106445312	-121.253547668457	-1088.073608398438	895.0767211914062	-34.33713531494141	-1070.864501953125	1034.142211914062	-4.393722057342529	-1054.766235351562	750.3906860351562	-153.3102111816406	-1096.927734375	828.5029296875	-63.07543182373047	-1096.348510742188	847.3624877929688	-134.0173034667969	-565.2180786132812	1463.716918945312	5.469930171966553	-503.7381591796875	1393.87158203125	29.34042739868164	-467.6293029785156	1109.423217773438	67.79167175292969	-563.7686157226562	1105.54248046875	59.03747177124023	-468.5841979980469	871.397216796875	-52.32004165649414	-435.2189025878906	862.0538330078125	30.37949752807617	-447.2853698730469	1036.430786132812	50.89215469360352	-496.7644653320312	684.1167602539062	-49.67063903808594	-458.2549133300781	775.24560546875	-67.06958770751953	-435.4025268554688	776.4030151367188	10.8645486831665	-673.2654418945312	1642.48583984375	37.38618850708008	-734.7379150390625	1726.763793945312	-154.7627258300781	-613.9500122070312	1703.698486328125	-114.9252395629883	-802.2108764648438	1673.703857421875	4.522952079772949	-949.4059448242188	994.5580444335938	13.45184898376465	-587.023193359375	981.2481689453125	-86.63803863525391	-644.811279296875	1016.190307617188	-161.0536651611328	-903.0098876953125	1026.028564453125	-127.5130767822266	-995.255615234375	492.2392272949219	1.767014384269714	-989.8781127929688	640.1720581054688	-6.647075176239014	-881.010498046875	200.4714660644531	378.7053527832031	-960.660888671875	342.6547241210938	180.7341918945312	-895.7255859375	38.89164733886719	252.6508026123047	-845.7514038085938	74.98306274414062	257.8768615722656	-922.5586547851562	98.33743286132812	351.5798034667969	-814.6647338867188	251.2803192138672	368.6632995605469	-697.1316528320312	501.1915893554688	-206.2952270507812	-611.1635131835938	762.5792236328125	-178.2129821777344	-815.5121459960938	34.00785064697266	-169.1666564941406	-735.4878540039062	385.2772521972656	-234.2384796142578	-772.390625	53.33382415771484	-386.2098693847656	-833.4622802734375	45.62558746337891	-352.1846923828125	-746.2221069335938	40.52320098876953	-264.0678405761719	-895.2127075195312	33.0478515625	-144.1314086914062	
305	3.04	-688.47998046875	1029.909912109375	73.50290679931641	-811.7764282226562	1040.893920898438	83.46904754638672	-746.9071655273438	1072.343872070312	79.23640441894531	-746.5789184570312	1287.771728515625	-176.0365600585938	-747.5320434570312	1228.256469726562	120.115592956543	-742.9231567382812	1499.747924804688	60.47004318237305	-745.6281127929688	1400.671875	-144.6099395751953	-647.7366943359375	1313.946655273438	123.5730133056641	-842.2943725585938	1483.901489257812	68.88310241699219	-920.3198852539062	1479.584106445312	-7.456064701080322	-1000.956359863281	1351.7998046875	25.74118423461914	-1038.154418945312	1140.252807617188	6.017472267150879	-958.865966796875	1114.744750976562	34.81777954101562	-1060.104370117188	920.3236694335938	-128.6655731201172	-1081.994384765625	893.7608032226562	-41.30250930786133	-1066.211181640625	1033.297729492188	-12.8992805480957	-1047.849975585938	747.8739624023438	-158.9900512695312	-1090.173217773438	826.7407836914062	-69.30715179443359	-1090.189453125	844.829345703125	-140.442626953125	-564.4686889648438	1464.569458007812	-1.247694492340088	-503.1712036132812	1394.738403320312	23.1294002532959	-466.708984375	1110.109130859375	61.652587890625	-562.74755859375	1106.188232421875	52.07530212402344	-467.225341796875	873.525146484375	-61.3604621887207	-434.622802734375	862.8338012695312	21.47520065307617	-446.3371276855469	1037.018676757812	44.18402862548828	-495.8113708496094	686.3594360351562	-61.9773063659668	-456.8987121582031	777.6589965820312	-77.47885131835938	-434.8278503417969	777.4830932617188	0.6528916954994202	-672.3875122070312	1643.428955078125	29.87044525146484	-732.9019775390625	1727.978393554688	-162.4627685546875	-612.2843017578125	1704.824462890625	-122.0710220336914	-801.1400756835938	1674.750244140625	-3.621291875839233	-947.4957275390625	994.1788940429688	2.827809572219849	-585.5965576171875	982.0185546875	-94.33216094970703	-642.9603271484375	1016.991638183594	-169.1923217773438	-901.43896484375	1027.114501953125	-136.915771484375	-998.42724609375	492.6737976074219	-18.92646980285645	-991.6339111328125	640.7437744140625	-23.78747749328613	-886.8418579101562	207.28271484375	363.005615234375	-965.2588500976562	345.4882202148438	161.6428070068359	-902.5562133789062	41.84711456298828	238.1480712890625	-852.1026000976562	79.762451171875	243.7763824462891	-928.7697143554688	105.1484375	336.8572082519531	-820.188232421875	257.6165466308594	353.0692443847656	-696.7244262695312	500.9139709472656	-209.6388397216797	-610.1618041992188	762.4766235351562	-184.3650817871094	-815.5186767578125	34.1029052734375	-169.2811889648438	-735.19580078125	384.9194946289062	-236.6212310791016	-772.3983764648438	52.23677062988281	-386.7014465332031	-833.6851806640625	45.19356536865234	-352.4187927246094	-746.3258056640625	40.43851089477539	-264.2808532714844	-895.1976928710938	33.06884002685547	-144.0922698974609	
306	3.05	-687.8410034179688	1030.833618164062	65.67134094238281	-811.161865234375	1041.402954101562	74.75360107421875	-746.3168334960938	1073.211303710938	70.88037109375	-744.5731201171875	1288.633056640625	-184.0742340087891	-747.3319702148438	1229.126220703125	111.8748321533203	-742.5979614257812	1500.718872070312	52.47412872314453	-743.8053588867188	1401.44970703125	-152.5581665039062	-647.7325439453125	1314.869995117188	116.276969909668	-841.9971923828125	1484.7197265625	60.13018417358398	-919.659423828125	1480.318603515625	-16.7022705078125	-999.6827392578125	1351.877807617188	16.05184555053711	-1034.780517578125	1139.880249023438	-3.570650577545166	-955.18017578125	1115.192993164062	25.23188591003418	-1054.897705078125	918.4779052734375	-136.0730438232422	-1076.060913085938	892.5668334960938	-48.30524826049805	-1061.673217773438	1032.535034179688	-21.45503997802734	-1041.163208007812	745.3969116210938	-164.6494293212891	-1083.598999023438	825.1358032226562	-75.59076690673828	-1084.065307617188	842.4469604492188	-146.9055633544922	-563.6946411132812	1465.421508789062	-7.897390842437744	-502.5579528808594	1395.600341796875	16.99234199523926	-465.8122253417969	1110.751953125	55.64105606079102	-561.7265625	1106.826538085938	45.26348114013672	-465.8264770507812	875.7605590820312	-70.47801208496094	-434.1239318847656	863.599365234375	12.50357532501221	-445.4181213378906	1037.562744140625	37.56858062744141	-494.8298645019531	688.8104248046875	-74.73556518554688	-455.4588012695312	780.2542724609375	-88.0870361328125	-434.344482421875	778.5948486328125	-9.754997253417969	-671.510498046875	1644.330932617188	22.43222427368164	-731.0307006835938	1729.153686523438	-170.0846862792969	-610.6099853515625	1705.929565429688	-129.1198272705078	-800.06005859375	1675.750732421875	-11.69361782073975	-945.186767578125	993.5379638671875	-8.277528762817383	-584.1507568359375	982.7131958007812	-101.6067886352539	-641.0050048828125	1017.749328613281	-176.9542541503906	-899.724365234375	1028.19189453125	-146.2063751220703	-1000.900756835938	493.2916259765625	-39.87065124511719	-992.9923706054688	641.4489135742188	-41.15515899658203	-892.8595581054688	212.9929656982422	346.4188537597656	-969.4636840820312	348.1617126464844	142.0847320556641	-909.6777954101562	45.43682479858398	221.7082824707031	-858.6860961914062	84.36768341064453	227.9501342773438	-935.487548828125	111.2741851806641	320.3626098632812	-825.73388671875	262.7574462890625	337.0696105957031	-696.2072143554688	500.6163940429688	-212.6601409912109	-609.11376953125	762.3903198242188	-190.1475830078125	-815.5034790039062	34.15862274169922	-169.3483581542969	-734.808837890625	384.5731201171875	-238.7221527099609	-772.3609619140625	51.27522659301758	-387.0929565429688	-833.8633422851562	44.86178588867188	-352.6038818359375	-746.397705078125	40.32805633544922	-264.4407958984375	-895.1730346679688	33.08650588989258	-144.0396575927734	
307	3.06	-687.3450317382812	1031.750122070312	58.15425872802734	-810.69140625	1041.987060546875	66.17961883544922	-745.815185546875	1074.107055664062	62.76132583618164	-742.5317993164062	1289.443481445312	-191.9213104248047	-747.1141357421875	1230.040161132812	103.8169021606445	-742.2355346679688	1501.697998046875	44.56539916992188	-741.9144897460938	1402.20361328125	-160.3551177978516	-647.68359375	1315.855224609375	109.1352233886719	-841.6568603515625	1485.546264648438	51.47964096069336	-918.9375610351562	1481.033081054688	-25.83894348144531	-998.3787841796875	1351.9697265625	6.456303596496582	-1031.481689453125	1139.573974609375	-13.14649391174316	-951.651123046875	1115.645629882812	15.78698253631592	-1049.669189453125	916.7615356445312	-143.4866485595703	-1070.320556640625	891.5341796875	-55.37073135375977	-1057.262939453125	1031.88818359375	-30.05240821838379	-1034.747802734375	743.0003662109375	-170.3227233886719	-1077.251342773438	823.7313232421875	-81.96061706542969	-1077.999267578125	840.2735595703125	-153.4426879882812	-562.8948364257812	1466.299560546875	-14.44872379302979	-501.9011535644531	1396.486694335938	10.9514627456665	-464.9517211914062	1111.380981445312	49.70710754394531	-560.72705078125	1107.4951171875	38.57901000976562	-464.4215087890625	878.1026000976562	-79.64780426025391	-433.7099609375	864.394775390625	3.47002100944519	-444.5409240722656	1038.101928710938	31.00728225708008	-493.8214416503906	691.4713134765625	-87.79724884033203	-453.9597778320312	783.0231323242188	-98.82103729248047	-433.9332885742188	779.7792358398438	-20.3076343536377	-670.6283569335938	1645.19775390625	15.06387424468994	-729.1116943359375	1730.286499023438	-177.6454772949219	-608.913818359375	1707.00830078125	-136.079345703125	-798.967529296875	1676.71142578125	-19.69879913330078	-942.6744384765625	992.7898559570312	-19.72295761108398	-582.6605834960938	983.3433837890625	-108.4111022949219	-638.9024658203125	1018.506042480469	-184.2738189697266	-897.80615234375	1029.276245117188	-155.4279937744141	-1002.641906738281	494.0904846191406	-60.99702453613281	-993.9458618164062	642.2876586914062	-58.74627304077148	-899.1095581054688	217.5495910644531	328.9771728515625	-973.2955322265625	350.6165771484375	122.1188430786133	-916.9007568359375	49.38674926757812	203.4406433105469	-865.36962890625	88.62964630126953	210.5341186523438	-942.6098022460938	116.5683517456055	302.1852416992188	-831.3893432617188	266.6741943359375	320.6961059570312	-695.5735473632812	500.3021545410156	-215.3608856201172	-607.964111328125	762.3150634765625	-195.5732574462891	-815.4642333984375	34.17253112792969	-169.3688201904297	-734.3069458007812	384.2385864257812	-240.5493469238281	-772.2930297851562	50.44892501831055	-387.3871154785156	-833.9963989257812	44.62250137329102	-352.73828125	-746.4288330078125	40.18929290771484	-264.5507507324219	-895.1300048828125	33.10280990600586	-143.9719085693359	
